<?xml version="1.0"?>
<svg version="1.1" xmlns="http://www.w3.org/2000/svg" width="220px" height="200px" style=""><path fill="#" d="M55.248,112.256l0.48,2.688s1.28,0.672,3.136,0.672c2.048,0,3.872-0.896,3.872-2.592c0-3.744-10.816-2.08-10.816-9.984c0-4.416,3.488-6.784,8.128-6.784c3.616,0,7.04,1.28,7.04,1.28l-0.16,5.824l-2.944,0l-0.8-2.72s-1.44-0.48-2.816-0.48c-2.272,0-3.392,0.992-3.392,2.272c0,3.712,10.784,2.24,10.784,9.76c0,4.8-3.712,7.424-8.64,7.424c-3.616,0-7.136-1.216-7.136-1.216l0-6.144l3.264,0z M72.70432,119.2l0-2.72l2.4-0.96l0-15.04l-2.4-0.96l0-2.72l9.92-0.16l0,2.88l-2.56,0.96l0,5.12l8.384,0l0-5.12l-2.56-0.96l0-2.72l9.92-0.16l0,2.88l-2.4,0.96l0,15.04l2.4,0.96l0,2.72l-9.92,0l0-2.72l2.56-0.96l0-6.08l-8.384,0l0,6.08l2.56,0.96l0,2.72l-9.92,0z M111.47264,96.256c6.4,0,10.08,4.224,10.08,11.36c0,7.2-4.32,12-10.72,12s-9.92-4-9.92-11.52c0-7.36,4.064-11.84,10.56-11.84z M111.31264,100.256c-3.2,0-4.96,1.984-4.96,7.68c0,5.28,1.44,7.68,4.64,7.68s5.12-2.08,5.12-7.84c0-5.28-1.6-7.52-4.8-7.52z M133.98496,100.48l0,10.08c0,3.68,1.056,5.12,4.192,5.12c3.392,0,4.128-1.824,4.128-5.6l0-9.6l-2.496-0.96l0-2.72l9.856-0.16l0,2.88l-2.4,0.96l0,9.6c0,6.176-2.368,9.504-9.248,9.504c-6.432,0-8.992-2.848-8.992-9.024l0-10.08l-2.368-0.96l0-2.72l9.824-0.16l0,2.88z M154.12928,119.2l0-2.72l2.4-0.96l0-15.04l-2.4-0.96l0-2.72l7.36-0.16l3.04,0c4.896,0,7.776,2.56,7.776,6.72c0,5.376-3.296,8-9.12,8l-1.696,0l0,4.16l2.4,0.96l0,2.72l-9.76,0z M161.48928,107.616l1.696,0c2.656,0,4.16-1.248,4.16-3.616c0-2.08-1.12-3.52-3.296-3.52l-2.56,0l0,7.136z M180.9296,119.2l0-2.72l2.4-0.96l0-4.128l-5.856-11.008l-2.08-0.864l0-2.72l9.056-0.16l0,2.88l-1.632,0.672l3.2,6.88l3.392-6.848l-1.76-0.704l0-2.72l8.64-0.16l0,2.88l-2.208,0.864l-5.792,10.976l0,4.16l2.4,0.96l0,2.72l-9.76,0z M200.81792,116.704c0-1.824,1.312-2.88,2.752-2.88c1.76,0,2.688,1.056,2.688,2.88c0,1.856-1.312,2.912-2.752,2.912c-1.76,0-2.688-1.056-2.688-2.912z"/><path fill="#" d=""/></svg>
